<svg width="16" height="16" viewBox="0 0 16 16" fill="none" xmlns="http://www.w3.org/2000/svg">
<path d="M7.98037 11.0041C7.84938 11.0049 7.71954 10.9796 7.59828 10.9299C7.47702 10.8801 7.36673 10.8068 7.27373 10.7141L3.2927 6.71409C3.1999 6.62085 3.12629 6.51016 3.07607 6.38834C3.02585 6.26652 3 6.13595 3 6.00409C3 5.87223 3.02585 5.74166 3.07607 5.61984C3.12629 5.49802 3.1999 5.38733 3.2927 5.29409C3.38549 5.20085 3.49566 5.12689 3.6169 5.07643C3.73815 5.02597 3.8681 5 3.99933 5C4.13057 5 4.26051 5.02597 4.38176 5.07643C4.503 5.12689 4.61317 5.20085 4.70597 5.29409L7.98037 8.60409L11.2647 5.42409C11.3563 5.3218 11.4679 5.23959 11.5925 5.18261C11.7171 5.12562 11.8521 5.09508 11.989 5.0929C12.1259 5.09072 12.2618 5.11695 12.3881 5.16994C12.5145 5.22293 12.6286 5.30155 12.7233 5.40087C12.818 5.5002 12.8914 5.61809 12.9387 5.74719C12.986 5.87628 13.0063 6.0138 12.9983 6.15113C12.9903 6.28847 12.9542 6.42267 12.8922 6.54535C12.8303 6.66802 12.7438 6.77653 12.6382 6.86409L8.65714 10.7241C8.47514 10.9004 8.23317 11.0005 7.98037 11.0041Z" fill="black"/>
</svg>
