<svg width="16" height="16" viewBox="0 0 16 16" fill="none" xmlns="http://www.w3.org/2000/svg">
<path d="M11.0021 8.02171C11.0029 8.15269 10.9777 8.28253 10.9279 8.40379C10.8781 8.52505 10.8048 8.63535 10.7121 8.72834L6.71214 12.7094C6.6189 12.8022 6.50821 12.8758 6.38639 12.926C6.26457 12.9762 6.134 13.0021 6.00214 13.0021C5.87028 13.0021 5.73971 12.9762 5.61789 12.926C5.49607 12.8758 5.38538 12.8022 5.29214 12.7094C5.1989 12.6166 5.12494 12.5064 5.07448 12.3852C5.02402 12.2639 4.99805 12.134 4.99805 12.0027C4.99805 11.8715 5.02402 11.7416 5.07448 11.6203C5.12494 11.4991 5.1989 11.3889 5.29214 11.2961L8.60214 8.02171L5.42214 4.73735C5.31985 4.6458 5.23764 4.53422 5.18065 4.4096C5.12367 4.28498 5.09313 4.15 5.09095 4.0131C5.08877 3.8762 5.115 3.74032 5.16799 3.61397C5.22098 3.48762 5.2996 3.3735 5.39892 3.27877C5.49824 3.18404 5.61614 3.11072 5.74523 3.0634C5.87433 3.01608 6.01184 2.99578 6.14918 3.00377C6.28652 3.01176 6.42072 3.04787 6.5434 3.10983C6.66607 3.1718 6.77458 3.25829 6.86214 3.3639L10.7221 7.34493C10.8985 7.52694 10.9986 7.76891 11.0021 8.02171Z" fill="black"/>
</svg>
