<svg width="16" height="16" viewBox="0 0 16 16" fill="none" xmlns="http://www.w3.org/2000/svg">
<path fill-rule="evenodd" clip-rule="evenodd" d="M1.52876 8.47138C1.46484 8.40746 1.41662 8.33379 1.38408 8.25516C1.35149 8.17656 1.3335 8.09037 1.3335 7.99998C1.3335 7.90958 1.35149 7.82339 1.38408 7.74479C1.41662 7.66616 1.46484 7.59249 1.52876 7.52857L5.29999 3.75733C5.56034 3.49699 5.98245 3.49699 6.2428 3.75733C6.50315 4.01768 6.50315 4.43979 6.2428 4.70014L3.60964 7.33331H14.0002C14.3684 7.33331 14.6668 7.63179 14.6668 7.99998C14.6668 8.36817 14.3684 8.66664 14.0002 8.66664H3.60964L6.2428 11.2998C6.50315 11.5602 6.50315 11.9823 6.2428 12.2426C5.98245 12.503 5.56034 12.503 5.29999 12.2426L1.52876 8.47138Z" fill="#6E41E2"/>
</svg>
