<svg width="16" height="16" viewBox="0 0 16 16" fill="none" xmlns="http://www.w3.org/2000/svg">
<path d="M12.7368 12.7273H5.78947V5.81818H12.7368V12.7273ZM12.7368 4.54545H5.78947C5.45446 4.54545 5.13317 4.67954 4.89629 4.91823C4.6594 5.15691 4.52632 5.48063 4.52632 5.81818V12.7273C4.52632 13.0648 4.6594 13.3885 4.89629 13.6272C5.13317 13.8659 5.45446 14 5.78947 14H12.7368C13.0719 14 13.3931 13.8659 13.63 13.6272C13.8669 13.3885 14 13.0648 14 12.7273V5.81818C14 5.48063 13.8669 5.15691 13.63 4.91823C13.3931 4.67954 13.0719 4.54545 12.7368 4.54545ZM10.8421 2H3.26316C2.92815 2 2.60686 2.13409 2.36997 2.37277C2.13308 2.61146 2 2.93518 2 3.27273V12.1818H3.26316V3.27273H10.8421V2Z" fill="black"/>
</svg>
