<svg width="16" height="16" viewBox="0 0 16 16" fill="none" xmlns="http://www.w3.org/2000/svg">
<path d="M1.33317 2.84667L2.1865 2L13.3332 13.1467L12.4865 14L10.4332 11.9467C9.6665 12.2 8.85317 12.3333 7.99984 12.3333C4.6665 12.3333 1.81984 10.26 0.666504 7.33333C1.1265 6.16 1.85984 5.12667 2.79317 4.30667L1.33317 2.84667ZM7.99984 5.33333C8.53027 5.33333 9.03898 5.54405 9.41405 5.91912C9.78912 6.29419 9.99984 6.8029 9.99984 7.33333C9.99984 7.56667 9.95984 7.79333 9.8865 8L7.33317 5.44667C7.53984 5.37333 7.7665 5.33333 7.99984 5.33333ZM7.99984 2.33333C11.3332 2.33333 14.1798 4.40667 15.3332 7.33333C14.7865 8.72 13.8598 9.92 12.6665 10.7933L11.7198 9.84C12.6265 9.21333 13.3732 8.36 13.8798 7.33333C12.7798 5.09333 10.5065 3.66667 7.99984 3.66667C7.27317 3.66667 6.55984 3.78667 5.89317 4L4.8665 2.98C5.8265 2.56667 6.8865 2.33333 7.99984 2.33333ZM2.11984 7.33333C3.21984 9.57333 5.49317 11 7.99984 11C8.45984 11 8.91317 10.9533 9.33317 10.86L7.81317 9.33333C6.85984 9.23333 6.09984 8.47333 5.99984 7.52L3.73317 5.24667C3.07317 5.81333 2.51984 6.52 2.11984 7.33333Z" fill="black"/>
</svg>
