<svg width="16" height="16" viewBox="0 0 16 16" fill="none" xmlns="http://www.w3.org/2000/svg">
<g clip-path="url(#clip0_2323_13406)">
<path d="M15.737 7.51842C15.7277 7.31936 15.6397 7.13213 15.4924 6.99793C15.3451 6.86373 15.1505 6.79355 14.9514 6.80282C14.7524 6.8121 14.5651 6.90007 14.4309 7.04739C14.2967 7.19471 14.2266 7.3893 14.2358 7.58837C14.299 8.93184 13.909 10.2576 13.1284 11.3528C12.3477 12.4481 11.2218 13.2492 9.93117 13.6278C8.64058 14.0063 7.26022 13.9403 6.01168 13.4402C4.76313 12.9401 3.7188 12.0351 3.04632 10.8703C2.37384 9.70555 2.11221 8.34861 2.30342 7.01731C2.49463 5.68601 3.1276 4.45756 4.10072 3.52914C5.07384 2.60073 6.33068 2.02619 7.6695 1.89775C9.00831 1.76931 10.3515 2.09442 11.4833 2.8209C11.5664 2.87416 11.6591 2.91054 11.7563 2.92796C11.8534 2.94538 11.953 2.94349 12.0494 2.92242C12.1458 2.90134 12.2371 2.86149 12.3181 2.80513C12.3991 2.74877 12.4682 2.67701 12.5214 2.59394C12.5747 2.51088 12.6111 2.41814 12.6285 2.32101C12.6459 2.22389 12.644 2.12429 12.623 2.02789C12.6019 1.93149 12.562 1.84019 12.5057 1.7592C12.4493 1.6782 12.3775 1.6091 12.2945 1.55584C10.8795 0.648245 9.20068 0.242317 7.52738 0.4032C5.85407 0.564083 4.28333 1.28245 3.06722 2.44302C1.85112 3.60358 1.06016 5.13906 0.821287 6.80302C0.582414 8.46698 0.909478 10.163 1.74999 11.6188C2.5905 13.0746 3.89572 14.2058 5.45619 14.8309C7.01666 15.456 8.7419 15.5388 10.355 15.0659C11.9682 14.593 13.3757 13.5919 14.3516 12.2232C15.3276 10.8545 15.8155 9.19761 15.737 7.51842Z" fill="black"/>
</g>
<defs>
<clipPath id="clip0_2323_13406">
<rect width="16" height="16" fill="white"/>
</clipPath>
</defs>
</svg>
