<svg width="16" height="16" viewBox="0 0 16 16" fill="none" xmlns="http://www.w3.org/2000/svg">
<path d="M14.6667 2V10.3333C14.6667 10.9522 14.4208 11.5457 13.9832 11.9832C13.5457 12.4208 12.9522 12.6667 12.3333 12.6667C11.7145 12.6667 11.121 12.4208 10.6834 11.9832C10.2458 11.5457 10 10.9522 10 10.3333C10 9.7145 10.2458 9.121 10.6834 8.68342C11.121 8.24583 11.7145 8 12.3333 8C12.6933 8 13.0333 8.08 13.3333 8.22667V4.31333L6.66667 5.73333V11.6667C6.66667 12.2855 6.42083 12.879 5.98325 13.3166C5.54566 13.7542 4.95217 14 4.33333 14C3.71449 14 3.121 13.7542 2.68342 13.3166C2.24583 12.879 2 12.2855 2 11.6667C2 11.0478 2.24583 10.4543 2.68342 10.0168C3.121 9.57917 3.71449 9.33333 4.33333 9.33333C4.69333 9.33333 5.03333 9.41333 5.33333 9.56V4L14.6667 2Z" fill="black"/>
</svg>
