<svg width="16" height="16" viewBox="0 0 16 16" fill="none" xmlns="http://www.w3.org/2000/svg">
<path d="M2 3.51333L2.85333 2.66667L14 13.8133L13.1533 14.6667L6.66667 8.18V11.6667C6.66667 12.2855 6.42083 12.879 5.98325 13.3166C5.54566 13.7542 4.95217 14 4.33333 14C3.71449 14 3.121 13.7542 2.68342 13.3166C2.24583 12.879 2 12.2855 2 11.6667C2 11.0478 2.24583 10.4543 2.68342 10.0168C3.121 9.57917 3.71449 9.33333 4.33333 9.33333C4.69333 9.33333 5.03333 9.41333 5.33333 9.56V6.84667L2 3.51333ZM14.6667 2V10.3333C14.6667 11 14.38 11.6133 13.92 12.04L10.6267 8.74667C11.0533 8.28667 11.6667 8 12.3333 8C12.6933 8 13.0333 8.08 13.3333 8.22667V4.31333L7.44667 5.56667L5.77333 3.89333L14.6667 2Z" fill="black"/>
</svg>
