<svg width="16" height="16" viewBox="0 0 16 16" fill="none" xmlns="http://www.w3.org/2000/svg">
<path d="M3.81556 7.05889C4.93556 9.26 6.74 11.0644 8.94111 12.1844L10.6522 10.4733C10.87 10.2556 11.1733 10.1933 11.4456 10.2789C12.3167 10.5667 13.25 10.7222 14.2222 10.7222C14.4285 10.7222 14.6263 10.8042 14.7722 10.95C14.9181 11.0959 15 11.2937 15 11.5V14.2222C15 14.4285 14.9181 14.6263 14.7722 14.7722C14.6263 14.9181 14.4285 15 14.2222 15C10.7155 15 7.35235 13.6069 4.8727 11.1273C2.39305 8.64765 1 5.28453 1 1.77778C1 1.5715 1.08194 1.37367 1.22781 1.22781C1.37367 1.08194 1.5715 1 1.77778 1H4.5C4.70628 1 4.90411 1.08194 5.04997 1.22781C5.19583 1.37367 5.27778 1.5715 5.27778 1.77778C5.27778 2.75 5.43333 3.68333 5.72111 4.55444C5.80667 4.82667 5.74444 5.13 5.52667 5.34778L3.81556 7.05889Z" fill="black"/>
</svg>
