<svg width="16" height="16" viewBox="0 0 16 16" fill="none" xmlns="http://www.w3.org/2000/svg">
<path d="M7.54597 1.98433C7.72468 1.5969 8.27532 1.5969 8.45403 1.98433L9.85773 5.02756C9.93057 5.18546 10.0802 5.29418 10.2529 5.31466L13.5809 5.70925C14.0046 5.75949 14.1748 6.28318 13.8615 6.57286L11.401 8.84827C11.2734 8.96634 11.2162 9.14225 11.2501 9.31281L11.9032 12.5999C11.9864 13.0184 11.5409 13.342 11.1686 13.1336L8.24422 11.4967C8.09248 11.4118 7.90752 11.4118 7.75578 11.4967L4.8314 13.1336C4.45909 13.342 4.01361 13.0184 4.09676 12.5999L4.74991 9.31281C4.78379 9.14225 4.72664 8.96634 4.59897 8.84827L2.13846 6.57286C1.82521 6.28318 1.99537 5.75949 2.41906 5.70925L5.74711 5.31466C5.91979 5.29418 6.06943 5.18546 6.14227 5.02756L7.54597 1.98433Z" fill="#FFD912"/>
</svg>
