<svg width="16" height="16" viewBox="0 0 16 16" fill="none" xmlns="http://www.w3.org/2000/svg">
<path d="M8 1.77778L6.37444 3.40333L8 5.02889V1.77778ZM1.98778 1L1 1.98778L4.67889 5.66667H1V10.3333H4.11111L8 14.2222V8.98778L11.3056 12.3011C10.7844 12.6978 10.2011 13.0244 9.55556 13.2111V14.8211C10.6289 14.5722 11.6011 14.0822 12.4178 13.4133L14.0122 15L15 14.0122L8 7.01222L1.98778 1ZM13.4444 8C13.4444 8.73111 13.2889 9.41556 13.0244 10.0533L14.1989 11.2278C14.7044 10.2633 15 9.16667 15 8C15 4.67111 12.6667 1.88667 9.55556 1.17889V2.78111C11.8033 3.45 13.4444 5.53444 13.4444 8ZM11.5 8C11.5 6.62333 10.7222 5.44111 9.55556 4.86556V6.58444L11.4611 8.49C11.5 8.33444 11.5 8.16333 11.5 8Z" fill="black"/>
</svg>
