<svg width="56" height="56" viewBox="0 0 56 56" fill="none" xmlns="http://www.w3.org/2000/svg">
<path d="M16.4847 29.0671C15.8679 28.5569 15.0642 28.2801 14.2347 28.2922C13.4053 28.3043 12.6116 28.6044 12.0126 29.1323C11.4137 29.6601 11.054 30.3768 11.0056 31.1384C10.9572 31.9 11.2237 32.6503 11.7517 33.2388L19.0484 40.2823C19.3539 40.5771 19.721 40.812 20.1276 40.9731C20.5343 41.1341 20.9721 41.2179 21.4149 41.2195C21.8553 41.2218 22.2917 41.1428 22.6982 40.987C23.1047 40.8312 23.4731 40.6018 23.7814 40.3126L46.0659 19.1517C46.3681 18.8659 46.606 18.5281 46.7662 18.1577C46.9265 17.7873 47.0058 17.3915 46.9997 16.9929C46.9936 16.5943 46.9022 16.2007 46.7307 15.8346C46.5592 15.4685 46.311 15.137 46.0002 14.8591C45.6894 14.5812 45.3222 14.3623 44.9194 14.215C44.5167 14.0676 44.0863 13.9947 43.6529 14.0003C43.2195 14.0059 42.7916 14.09 42.3935 14.2477C41.9955 14.4054 41.6351 14.6337 41.3329 14.9196L21.4477 33.8434L16.4847 29.0671Z" fill="#111111"/>
</svg>
