<svg width="56" height="56" viewBox="0 0 56 56" fill="none" xmlns="http://www.w3.org/2000/svg">
<path fill-rule="evenodd" clip-rule="evenodd" d="M11.0056 40.1385C9.6648 41.4794 9.6648 43.6532 11.0056 44.994C12.3464 46.3349 14.5203 46.3349 15.8611 44.994L27.9998 32.8554L40.1389 44.9945C41.4797 46.3353 43.6536 46.3353 44.9944 44.9945C46.3352 43.6537 46.3352 41.4798 44.9944 40.139L32.8553 27.9999L44.9941 15.8611C46.3349 14.5203 46.3349 12.3464 44.9941 11.0056C43.6533 9.66477 41.4794 9.66477 40.1386 11.0056L27.9998 23.1444L15.8614 11.006C14.5206 9.66523 12.3467 9.66523 11.0059 11.006C9.66506 12.3468 9.66506 14.5207 11.0059 15.8615L23.1443 27.9999L11.0056 40.1385Z" fill="#111111"/>
</svg>
