<svg width="56" height="56" viewBox="0 0 56 56" fill="none" xmlns="http://www.w3.org/2000/svg">
<path fill-rule="evenodd" clip-rule="evenodd" d="M42.166 44.3317L35.2135 37.3882C32.581 39.3615 29.3095 40.5315 25.7657 40.5315C17.0583 40.5315 10 33.4732 10 24.7657C10 16.0583 17.0583 9 25.7657 9C34.471 9 41.5292 16.0583 41.5292 24.7657C41.5292 28.2983 40.366 31.5562 38.4085 34.1842L45.3385 41.1143C46.2205 42.0052 46.2205 43.443 45.3385 44.3317C44.461 45.2228 43.0435 45.2228 42.166 44.3317ZM14.5045 24.7657C14.5045 30.987 19.5468 36.027 25.7635 36.027H25.768C31.9847 36.027 37.0247 30.9847 37.0247 24.7657C37.0247 18.5445 31.9847 13.5045 25.7657 13.5045C19.5445 13.5045 14.5045 18.5468 14.5045 24.7657ZM31.1244 30.1256C30.4543 30.7957 29.3678 30.7957 28.6977 30.1256L25.7488 27.1767L22.7997 30.1257C22.1296 30.7958 21.0432 30.7958 20.373 30.1257C19.7029 29.4556 19.7029 28.3691 20.373 27.699L23.3221 24.75L20.3727 21.8006C19.7026 21.1305 19.7026 20.044 20.3727 19.3739C21.0428 18.7038 22.1293 18.7038 22.7994 19.3739L25.7488 22.3233L28.698 19.3741C29.3681 18.7039 30.4546 18.7039 31.1247 19.3741C31.7948 20.0442 31.7948 21.1306 31.1247 21.8007L28.1755 24.75L31.1244 27.6989C31.7945 28.369 31.7945 29.4555 31.1244 30.1256Z" fill="#111111"/>
</svg>
