<svg width="32" height="32" viewBox="0 0 32 32" fill="none" xmlns="http://www.w3.org/2000/svg">
<path fill-rule="evenodd" clip-rule="evenodd" d="M9.39155 20.7205C8.87013 21.2419 8.87013 22.0873 9.39155 22.6087C9.91298 23.1301 10.7584 23.1301 11.2798 22.6087L16.0005 17.888L20.7213 22.6089C21.2428 23.1303 22.0882 23.1303 22.6096 22.6089C23.131 22.0874 23.131 21.2421 22.6096 20.7206L17.8887 15.9998L22.6092 11.2793C23.1306 10.7579 23.1306 9.91249 22.6092 9.39107C22.0878 8.86964 21.2424 8.86964 20.721 9.39107L16.0005 14.1115L11.2802 9.39124C10.7588 8.86982 9.91336 8.86982 9.39194 9.39124C8.87052 9.91267 8.87052 10.7581 9.39194 11.2795L14.1122 15.9998L9.39155 20.7205Z" fill="#111111"/>
</svg>
