<svg width="32" height="32" viewBox="0 0 32 32" fill="none" xmlns="http://www.w3.org/2000/svg">
<path d="M16.1859 9.58087C15.8651 9.58087 15.8651 10.0809 16.1859 10.085C18.6751 10.1042 20.7251 11.8392 20.7476 15.0217C20.7476 15.3575 21.2393 15.3534 21.2351 15.0175C21.2084 11.5884 18.9693 9.60004 16.1859 9.58087Z" fill="#7C529E"/>
<path d="M19.4575 14.4942C19.45 14.8259 19.9408 14.8417 19.945 14.5059C19.9858 12.615 18.82 11.0575 16.6292 10.8934C16.3083 10.87 16.275 11.3742 16.595 11.3975C18.495 11.5417 19.4958 12.8384 19.4575 14.4942Z" fill="#7C529E"/>
<path d="M17.9303 16.7892C18.1037 16.555 18.5228 16.4067 18.9345 16.645C19.4895 16.9692 20.1962 17.4734 20.6645 17.93C20.9287 18.1525 20.9887 18.4925 20.8078 18.8517V18.8575C20.4003 19.6 19.637 20.42 18.852 20.1584L18.8445 20.1467C18.0478 19.9159 16.1712 18.9159 14.9853 17.94C12.8996 16.2345 11.997 14.0729 11.5033 12.8906C11.3998 12.6426 11.3142 12.4377 11.2395 12.2892C10.987 11.4767 11.7762 10.6875 12.497 10.2659H12.5045C12.8512 10.0784 13.1845 10.1409 13.4062 10.4184C13.458 10.4909 13.5222 10.5689 13.5986 10.6618C13.833 10.9465 14.1829 11.3716 14.6478 12.2117C14.8787 12.6375 14.7353 13.0709 14.5087 13.2509L14.0553 13.6259C13.8253 13.8167 13.8562 14.1725 13.8562 14.1725C13.8562 14.1725 14.5278 16.8009 17.0395 17.465C17.0395 17.465 17.3837 17.4967 17.5678 17.2584L17.9303 16.7892Z" fill="#7C529E"/>
<path d="M16.9751 12.7534C17.7759 12.8 18.1643 13.2184 18.2059 14.0775C18.2209 14.4134 18.7084 14.39 18.6934 14.0542C18.6401 12.9325 18.0551 12.3075 17.0018 12.2492C16.6809 12.23 16.6509 12.7342 16.9751 12.7534Z" fill="#7C529E"/>
<path fill-rule="evenodd" clip-rule="evenodd" d="M23.4144 7.95002C25.0078 9.38419 25.8911 12.555 25.2944 17.5775C24.7723 22.0088 21.7849 22.7936 20.7822 23.0571C20.6838 23.0829 20.6046 23.1038 20.5486 23.1225C20.2778 23.2125 17.8944 23.8292 14.7911 23.56C14.6829 23.6893 14.5801 23.8122 14.4823 23.9292C12.9027 25.819 12.6305 26.1446 12.0686 25.9625C11.5469 25.7984 11.5778 24.9817 11.5778 24.9817L11.5819 22.9659H11.5778C7.0436 21.6459 7.10693 16.78 7.16027 14.1825C7.2136 11.5859 7.70027 9.48835 9.08193 8.05919C12.1586 5.13752 20.8436 5.50002 23.4153 7.94919L23.4144 7.95002ZM12.5219 25.2267C13.1328 24.5909 15.0969 22.1417 15.0969 22.1417C17.7286 22.3175 19.8244 21.7784 20.0503 21.7034C20.1029 21.6858 20.1788 21.6675 20.2733 21.6447C21.1273 21.4385 23.5005 20.8655 23.9394 17.2084C23.939 17.1902 23.9454 17.1258 23.9557 17.022C24.0601 15.9703 24.5657 10.8771 22.4069 8.96335C20.4669 7.14002 12.8528 6.57419 10.1536 9.10502C8.9836 10.3009 8.58693 12.0767 8.54527 14.245C8.54384 14.3195 8.54219 14.3963 8.54049 14.4753C8.49283 16.6937 8.40904 20.5937 12.1211 21.6575C12.1211 21.6575 12.1061 24.735 12.1061 25.0042C12.1028 25.4142 12.3219 25.4334 12.5219 25.2267Z" fill="#7C529E"/>
</svg>
