<svg width="32" height="32" viewBox="0 0 32 32" fill="none" xmlns="http://www.w3.org/2000/svg">
<path d="M27.4511 9.94182C27.6196 9.40727 27.4512 9 26.6479 9H24.0307C23.3569 9 23.0589 9.34364 22.8905 9.72545C22.8905 9.72545 21.556 12.92 19.6643 15.0073C19.0424 15.6055 18.7703 15.7964 18.4335 15.7964C18.265 15.7964 17.993 15.6055 17.993 15.0582V9.94182C17.993 9.29273 17.8375 9 17.2803 9H13.1472C12.7326 9 12.4865 9.30545 12.4865 9.59818C12.4865 10.2091 13.4582 10.3618 13.523 12.1055V15.8982C13.523 16.7382 13.3675 16.8909 13.0436 16.8909C12.1626 16.8909 9.98587 13.6709 8.70319 10.0055C8.44406 9.29273 8.19789 9 7.52415 9H4.89399C4.15548 9 4 9.34364 4 9.72545C4 10.4127 4.89399 13.7982 8.14606 18.2782C10.3098 21.3455 13.3675 23 16.1531 23C17.8245 23 18.0318 22.6309 18.0318 21.9945V19.6782C18.0318 18.9527 18.1873 18.8 18.7185 18.8C19.1072 18.8 19.768 18.9909 21.3228 20.4545C23.1107 22.2109 23.3958 23 24.4064 23H27.0236C27.7751 23 28.1508 22.6309 27.9435 21.9055C27.7103 21.18 26.8552 20.1236 25.7279 18.8764C25.119 18.1764 24.1991 17.4127 23.914 17.0182C23.5254 16.5345 23.642 16.3182 23.914 15.8727C23.914 15.8727 27.1143 11.4564 27.4511 9.94182Z" fill="#627DA1"/>
</svg>
